# xmcd
#
# Track frame offsets: 
#        150
#        15275
#        26875
#        42607
#        53095
#        63010
#        78702
#        90532
#        104802
#        117375
#        129935
#        142587
#        154000
#        164852
#        177055
#        198027
#        211165
#        224377
#        237905
#        249852
#        261022
#
# Disc length: 3617 seconds
#
# Revision: 0
# Processed by: cddbd v1.5.2PL0 Copyright (c) Steve Scherf et al.
# Submitted via: ExactAudioCopy v0.99pb3
#
DISCID=1a0e1f15
DTITLE=Bobby "Blue" Bland - Touch Of The Blues - The Soul Of The Man
DYEAR=1991
DGENRE=Blues
TTITLE0=Touch Of The Blues
TTITLE1=Set Me Free
TTITLE2=That Did It
TTITLE3=Road Of Broken Hearted Men
TTITLE4=Sweet Loving
TTITLE5=Driftin' Blues
TTITLE6=Sweet Lips Of Joy
TTITLE7=Sad Feeling
TTITLE8=Shoes
TTITLE9=One Horse Town
TTITLE10=I Can't Stop
TTITLE11=Back In The Same Old Bag
TTITLE12=Deep In My Soul
TTITLE13=Reach Right Out
TTITLE14=Ain't Nobody's Business
TTITLE15=Fever
TTITLE16=Too Late For Tears
TTITLE17=Let's Get Together
TTITLE18=Soul Stretch
TTITLE19=Dear Bobby
TTITLE20=Playgirl
EXTD=
EXTT0=
EXTT1=
EXTT2=
EXTT3=
EXTT4=
EXTT5=
EXTT6=
EXTT7=
EXTT8=
EXTT9=
EXTT10=
EXTT11=
EXTT12=
EXTT13=
EXTT14=
EXTT15=
EXTT16=
EXTT17=
EXTT18=
EXTT19=
EXTT20=
PLAYORDER=
